{"title":"Horrible.Bosses.2.2014.WEBRip.480p.x264.AAC-VYTO [P2PDL]","uid":11694226,"size":391297504,"categoryP":"video","categoryS":"movies","magnet":"?xt=urn:btih:13fb7b5f9b6d36d5db437dd15ff6efe0d8d2a973&amp;dn=Horrible.Bosses.2.2014.WEBRip.480p.x264.AAC-VYTO+%5BP2PDL%5D&amp;tr=udp%3A%2F%2Ftracker.openbittorrent.com%3A80&amp;tr=udp%3A%2F%2Fopen.demonii.com%3A1337&amp;tr=udp%3A%2F%2Ftracker.coppersurfer.tk%3A6969&amp;tr=udp%3A%2F%2Fexodus.desync.com%3A6969","seeders":2,"leechers":3,"uploader":"ValidusVyto","files":6,"time":1423649854,"description":"Horrible.Bosses.2.2014.WEBRip.480p.x264.AAC-VYTO\n\n\nGenre: Comedy | Crime\nIMDb: http://www.imdb.com/title/tt2170439/\n\nFormat                      : MPEG-4\nFile size                   : 368 MiB\nDuration                    : 1h 48mn\nOverall bit rate            : 475 Kbps\n\nVideo\nFormat                      : AVC\nBit rate                    : 438 Kbps\nWidth                       : 720 pixels\nHeight                      : 304 pixels\nDisplay aspect ratio        : 2.40:1\nOriginal display aspect rat : 2.40:1\nFrame rate mode             : Variable\nFrame rate                  : 23.976 fps\nChroma subsampling          : 4:2:0\nBit depth                   : 8 bits\nStream size                 : 339 MiB (92%)\nWriting library             : x264 core 142 r2479 dd79a61\n\nAudio\nFormat                      : AAC\nBit rate                    : 32.0 Kbps\nChannel(s)                  : 2 channels\nChannel positions           : Front: L R\nSampling rate               : 48.0 KHz\nStream size                 : 24.8 MiB (7%)\nTitle                       : Stereo \nLanguage                    : English\n\nSubtitle                    : Yes(English)\nSource                      : 720p.WEB-DL.AAC2.0.H264\n &lt;a href=&quot;\nhttp://someimage.com/Rs9vOc0&quot; rel=&quot;nofollow&quot; target=&quot;_NEW&quot;&gt;\nhttp://someimage.com/Rs9vOc0&lt;/a&gt; &lt;a href=&quot;\nhttp://someimage.com/8FxObON&quot; rel=&quot;nofollow&quot; target=&quot;_NEW&quot;&gt;\nhttp://someimage.com/8FxObON&lt;/a&gt; &lt;a href=&quot;\nhttp://someimage.com/SBTksf7&quot; rel=&quot;nofollow&quot; target=&quot;_NEW&quot;&gt;\nhttp://someimage.com/SBTksf7&lt;/a&gt; &lt;a href=&quot;\nhttp://someimage.com/dWyS3UB&quot; rel=&quot;nofollow&quot; target=&quot;_NEW&quot;&gt;\nhttp://someimage.com/dWyS3UB&lt;/a&gt; &lt;a href=&quot;\nhttp://someimage.com/IjGX69D&quot; rel=&quot;nofollow&quot; target=&quot;_NEW&quot;&gt;\nhttp://someimage.com/IjGX69D&lt;/a&gt; &lt;a href=&quot;\nhttp://someimage.com/b0BALaq&quot; rel=&quot;nofollow&quot; target=&quot;_NEW&quot;&gt;\nhttp://someimage.com/b0BALaq&lt;/a&gt; &lt;a href=&quot;\nhttp://someimage.com/cYXgkxF&quot; rel=&quot;nofollow&quot; target=&quot;_NEW&quot;&gt;\nhttp://someimage.com/cYXgkxF&lt;/a&gt; &lt;a href=&quot;\nhttp://someimage.com/z40LT62&quot; rel=&quot;nofollow&quot; target=&quot;_NEW&quot;&gt;\nhttp://someimage.com/z40LT62&lt;/a&gt; &lt;a href=&quot;\nhttp://someimage.com/bPIBAkh&quot; rel=&quot;nofollow&quot; target=&quot;_NEW&quot;&gt;\nhttp://someimage.com/bPIBAkh&lt;/a&gt; &lt;a href=&quot;\nhttp://someimage.com/6GVEGgc&quot; rel=&quot;nofollow&quot; target=&quot;_NEW&quot;&gt;\nhttp://someimage.com/6GVEGgc&lt;/a&gt; &lt;a href=&quot;\nhttp://someimage.com/OmrgNBn&quot; rel=&quot;nofollow&quot; target=&quot;_NEW&quot;&gt;\nhttp://someimage.com/OmrgNBn&lt;/a&gt; &lt;a href=&quot;\nhttp://someimage.com/vUqZ4TA&quot; rel=&quot;nofollow&quot; target=&quot;_NEW&quot;&gt;\nhttp://someimage.com/vUqZ4TA&lt;/a&gt;\n\n----------------------------------------------------------------------------------------------------\n\n\nEncoder Notes: Looking For Early Access To Anything You Can Provide DVDScr, R5, DVDR, BluRay, Direct\nAudio, Music Releases and Seedboxes. If You Got anything to offer please contact us.\n\nWe require dedicated servers, so as to do more and fast releases of movies.\nSupport us by sending us LC - LezHMTo2cYaiztCCcWxB4cNFVNVpWW3GSx","torrent":{"xt":"urn:btih:13fb7b5f9b6d36d5db437dd15ff6efe0d8d2a973","amp;dn":"Horrible.Bosses.2.2014.WEBRip.480p.x264.AAC-VYTO+%5BP2PDL%5D","amp;tr":["udp%3A%2F%2Ftracker.openbittorrent.com%3A80","udp%3A%2F%2Fopen.demonii.com%3A1337","udp%3A%2F%2Ftracker.coppersurfer.tk%3A6969","udp%3A%2F%2Fexodus.desync.com%3A6969"],"infoHash":"13fb7b5f9b6d36d5db437dd15ff6efe0d8d2a973","infoHashBuffer":{"type":"Buffer","data":[19,251,123,95,155,109,54,213,219,67,125,209,95,246,239,224,216,210,169,115]},"announce":[],"urlList":[]}}